<?xml version="1.0" standalone="no"?>
<!DOCTYPE svg PUBLIC "-//W3C//DTD SVG 20010904//EN"
 "http://www.w3.org/TR/2001/REC-SVG-20010904/DTD/svg10.dtd">
<svg version="1.0" xmlns="http://www.w3.org/2000/svg"
 width="979.000000pt" height="980.000000pt" viewBox="0 0 979.000000 980.000000"
 preserveAspectRatio="xMidYMid meet">

<g transform="translate(0.000000,980.000000) scale(0.100000,-0.100000)"
fill="#000000" stroke="none">
<path d="M5555 8829 c-155 -10 -278 -29 -438 -70 -241 -60 -528 -184 -674
-290 -173 -125 -225 -128 -450 -23 -147 68 -222 88 -328 87 -79 0 -102 -5
-190 -38 -317 -120 -742 -387 -1140 -718 -489 -407 -867 -835 -1089 -1232
-136 -244 -213 -520 -186 -665 23 -121 82 -196 252 -317 62 -44 120 -93 128
-107 33 -62 -18 -159 -235 -447 -170 -226 -215 -299 -249 -400 -70 -209 -76
-605 -15 -904 74 -356 217 -664 420 -904 68 -81 140 -132 316 -225 129 -68
207 -131 223 -181 8 -25 8 -59 -1 -136 -17 -147 -9 -251 24 -316 33 -64 99
-143 213 -255 269 -263 679 -511 1095 -661 104 -38 147 -48 240 -57 200 -19
223 -29 279 -125 33 -58 79 -103 114 -114 51 -16 182 -31 274 -31 324 0 1029
155 1262 276 216 113 379 363 380 584 0 149 -94 312 -234 403 -73 48 -101 56
-296 78 -96 10 -198 24 -226 29 -93 19 -112 60 -123 276 -10 189 -22 217 -128
323 -79 78 -171 135 -261 162 -62 18 -69 32 -41 75 24 36 101 97 243 195 119
81 143 127 191 363 13 66 29 124 34 129 6 6 78 14 161 18 127 7 165 13 240 38
262 88 481 265 586 473 49 97 80 215 109 413 14 95 35 200 45 231 25 72 64
139 87 150 10 4 133 10 273 13 252 6 256 7 307 33 65 35 155 103 294 224 142
122 191 154 243 154 60 0 107 -35 261 -192 87 -89 159 -153 190 -170 53 -28
62 -28 213 7 14 4 22 1 22 -8 0 -21 -78 -52 -130 -52 -25 1 -48 -4 -52 -10
-15 -20 -8 -133 12 -211 40 -155 136 -373 191 -432 89 -95 246 -132 410 -98
337 72 645 394 789 825 50 149 71 268 71 409 0 198 -25 276 -129 400 -80 96
-122 164 -122 199 0 19 14 61 31 94 77 147 40 312 -160 724 -219 451 -435 771
-695 1030 -179 178 -339 293 -436 314 -26 6 -90 15 -141 22 -52 6 -114 19
-139 28 -25 10 -135 72 -245 138 -551 331 -854 441 -1305 473 -159 11 -176 11
-365 -1z m280 -645 c453 -35 736 -102 939 -221 227 -133 342 -306 404 -608 36
-171 43 -252 49 -530 6 -305 -9 -540 -53 -804 -48 -290 -95 -429 -175 -516
-83 -89 -174 -126 -314 -126 -111 0 -185 19 -295 74 -108 53 -221 163 -338
330 -194 274 -530 807 -958 1518 -145 242 -282 467 -305 500 -50 75 -89 156
-89 189 0 24 8 28 88 54 48 16 123 46 167 67 204 96 387 112 880 73z m-1762
-439 c78 -16 202 -67 284 -117 88 -53 231 -178 318 -277 177 -204 280 -360
538 -816 96 -171 198 -350 227 -400 136 -231 233 -461 260 -611 7 -39 11 -112
8 -165 -4 -87 -7 -100 -46 -174 -69 -131 -165 -249 -376 -461 -239 -239 -465
-434 -551 -477 -112 -55 -283 -19 -590 125 -93 44 -312 143 -485 220 -785 350
-1184 588 -1455 869 -190 197 -275 375 -275 578 0 281 157 561 509 911 197
197 372 342 536 444 61 38 138 90 171 117 34 26 95 62 135 79 165 71 408 149
504 163 71 10 225 6 288 -8z m3828 -227 c157 -112 179 -143 347 -500 175 -371
233 -543 254 -754 21 -202 -22 -370 -142 -552 -155 -235 -359 -385 -479 -352
-56 15 -116 85 -141 166 -48 158 -49 283 -6 719 37 371 48 590 50 987 0 197 5
358 9 358 4 0 53 -32 108 -72z m1137 -1860 c-6 -142 -25 -211 -90 -323 -58
-99 -216 -254 -352 -344 -230 -153 -370 -199 -471 -157 -121 51 -31 177 276
386 222 152 275 197 458 388 91 95 169 172 174 172 6 0 7 -51 5 -122z m-7329
-306 c25 -15 100 -79 167 -142 155 -149 248 -224 398 -324 158 -106 290 -176
642 -344 504 -240 654 -324 866 -485 276 -208 462 -429 484 -574 12 -78 -33
-162 -119 -226 -93 -69 -199 -100 -723 -212 -93 -20 -284 -63 -424 -96 -347
-82 -487 -102 -665 -96 -167 6 -260 28 -376 88 -183 95 -356 313 -459 576
-158 404 -179 980 -55 1503 36 151 51 195 98 288 l42 84 39 -7 c21 -3 59 -18
85 -33z m2369 -2891 c211 -39 302 -116 302 -255 0 -49 -7 -76 -34 -131 -87
-182 -380 -498 -646 -696 -245 -183 -372 -172 -727 60 -239 156 -436 318 -559
459 -146 166 -197 271 -172 347 12 34 23 43 97 81 46 24 116 50 155 59 70 15
545 66 781 84 147 12 730 5 803 -8z m913 -512 c42 -79 -41 -257 -250 -539
-235 -316 -488 -475 -723 -457 -114 9 -199 63 -185 117 5 21 -7 28 -18 10 -3
-5 -13 -10 -22 -10 -13 0 -13 3 -3 15 24 29 196 152 404 289 279 183 305 204
491 387 88 86 178 169 199 183 48 32 91 34 107 5z"/>
</g>
</svg>
